<svg xmlns="http://www.w3.org/2000/svg" xmlns:xlink="http://www.w3.org/1999/xlink" width="1080" zoomAndPan="magnify" viewBox="0 0 810 809.999993" height="1080" preserveAspectRatio="xMidYMid meet" version="1.0"><defs><clipPath id="f427791ad1"><path d="M 15.695312 2 L 794.195312 2 L 794.195312 808 L 15.695312 808 Z M 15.695312 2 " clip-rule="nonzero"/></clipPath></defs><g clip-path="url(#f427791ad1)"><path fill="#99b83c" d="M 764.390625 2.488281 L 729.425781 26.40625 C 546.605469 151.433594 359.390625 410.269531 265.996094 620.710938 C 251.566406 600.523438 247.207031 593.832031 233.230469 571.382812 C 176.125 494.285156 103.730469 428.109375 69.371094 403.664062 L 15.695312 426.097656 L 17.394531 429.28125 C 54.457031 469.835938 119.492188 559.835938 217.503906 758.160156 C 223.511719 766.726562 229.921875 775.132812 237.214844 782.972656 C 256.398438 803.511719 276.0625 807.832031 289.1875 807.832031 C 289.203125 807.832031 289.203125 807.832031 289.203125 807.832031 C 326.621094 807.832031 348.683594 778.296875 363.875 743.722656 C 462.042969 379.480469 694.015625 128.726562 794.332031 42.847656 Z M 764.390625 2.488281 " fill-opacity="1" fill-rule="nonzero"/></g></svg>